{
	"asset":{
		"generator":"Khronos glTF Blender I/O v5.2.39",
		"version":"2.0"
	},
	"scene":0,
	"scenes":[
		{
			"name":"Scene",
			"nodes":[
				0,
				4
			]
		}
	],
	"nodes":[
		{
			"mesh":0,
			"name":"Cube",
			"rotation":[
				0,
				-1,
				0,
				4.371138828673793e-08
			],
			"scale":[
				8.170000076293945,
				2.617222309112549,
				8.598583221435547
			]
		},
		{
			"name":"X",
			"rotation":[
				-0.5000000596046448,
				0.5,
				0.49999985098838806,
				0.5000000596046448
			],
			"scale":[
				-95.70499420166016,
				-91.9434585571289,
				-95.70499420166016
			],
			"translation":[
				-64.64010620117188,
				72.49473571777344,
				0
			]
		},
		{
			"name":"Y",
			"rotation":[
				0.7071068286895752,
				0,
				0,
				0.7071068286895752
			],
			"scale":[
				95.70499420166016,
				91.9434585571289,
				95.70499420166016
			],
			"translation":[
				182.14666748046875,
				72.85585021972656,
				-196.495849609375
			]
		},
		{
			"name":"Z",
			"rotation":[
				0.7071068286895752,
				0,
				-0.7071068286895752,
				0
			],
			"scale":[
				-91.9434585571289,
				-91.9434585571289,
				-91.9434585571289
			],
			"translation":[
				-11.364692687988281,
				-36.95726013183594,
				-4.838725566864014
			]
		},
		{
			"children":[
				1,
				2,
				3
			],
			"name":"Reference",
			"scale":[
				8.170000076293945,
				8.170000076293945,
				8.170000076293945
			]
		}
	],
	"meshes":[
		{
			"name":"Cube",
			"primitives":[
				{
					"attributes":{
						"POSITION":0,
						"NORMAL":1,
						"TEXCOORD_0":2
					},
					"indices":3
				}
			]
		}
	],
	"accessors":[
		{
			"bufferView":0,
			"componentType":5126,
			"count":305,
			"max":[
				50.966041564941406,
				4.846273422241211,
				119.39335632324219
			],
			"min":[
				-50.966041564941406,
				-96.07220458984375,
				-118.3488998413086
			],
			"type":"VEC3"
		},
		{
			"bufferView":1,
			"componentType":5126,
			"count":305,
			"type":"VEC3"
		},
		{
			"bufferView":2,
			"componentType":5126,
			"count":305,
			"type":"VEC2"
		},
		{
			"bufferView":3,
			"componentType":5123,
			"count":552,
			"type":"SCALAR"
		}
	],
	"bufferViews":[
		{
			"buffer":0,
			"byteLength":3660,
			"byteOffset":0,
			"target":34962
		},
		{
			"buffer":0,
			"byteLength":3660,
			"byteOffset":3660,
			"target":34962
		},
		{
			"buffer":0,
			"byteLength":2440,
			"byteOffset":7320,
			"target":34962
		},
		{
			"buffer":0,
			"byteLength":1104,
			"byteOffset":9760,
			"target":34963
		}
	],
	"buffers":[
		{
			"byteLength":10864,
			"uri":"wreck_farragut.bin"
		}
	]
}
